<svg xmlns="http://www.w3.org/2000/svg" viewBox="0 0 64 64">
  <defs>
    <linearGradient id="g" x1="0%" x2="100%" y1="0%" y2="100%">
      <stop offset="0%" stop-color="#f43f5e" />
      <stop offset="100%" stop-color="#fb7185" />
    </linearGradient>
  </defs>
  <rect width="64" height="64" rx="14" fill="url(#g)" />
  <path
    d="M41.8 20.6c-2-1.8-5.2-3-9.1-3-6.3 0-10.9 3.2-10.9 8.3 0 9.8 15.1 6.3 15.1 12 0 1.8-1.8 3.1-4.8 3.1-2.7 0-5.4-1-7.6-2.8l-3.4 4.8c2.7 2.3 6.6 3.7 10.8 3.7 7.3 0 11.9-3.5 11.9-8.8 0-10.1-15.1-6.7-15.1-12 0-1.7 1.5-2.7 4-2.7 2.4 0 4.8.8 6.8 2.3l2.3-3.9z"
    fill="#fff"
  />
</svg>
